<?xml version="1.0" encoding="utf-8"?>
<!-- Generator: Adobe Illustrator 20.1.0, SVG Export Plug-In . SVG Version: 6.00 Build 0)  -->
<svg version="1.1" id="Layer_1" xmlns="http://www.w3.org/2000/svg" xmlns:xlink="http://www.w3.org/1999/xlink" x="0px" y="0px"
	 viewBox="0 0 960 560" style="enable-background:new 0 0 960 560;" xml:space="preserve">
<style type="text/css">
	.st0{fill:none;stroke:#000000;stroke-miterlimit:10;}
	.st1{fill:#FFFFFF;}
	.st2{fill:#C3EDFF;}
	.st3{fill:url(#SVGID_1_);}
	.st4{fill:#808080;stroke:#808080;stroke-miterlimit:10;}
</style>
<line class="st0" x1="0" y1="560" x2="960" y2="560"/>
<rect class="st1" width="960" height="560"/>
<polygon class="st2" points="128,560 960,0 960,560 "/>
<linearGradient id="SVGID_1_" gradientUnits="userSpaceOnUse" x1="-9.094947e-13" y1="149.9015" x2="960" y2="149.9015" gradientTransform="matrix(1 -4.500700e-04 -4.500689e-04 0.9524 0 0)">
	<stop  offset="0" style="stop-color:#FFFFFF"/>
	<stop  offset="0" style="stop-color:#F6F2C0"/>
	<stop  offset="0.4874" style="stop-color:#CB9B51"/>
	<stop  offset="0.9521" style="stop-color:#F6E27A"/>
	<stop  offset="1" style="stop-color:#462523"/>
	<stop  offset="1" style="stop-color:#000000"/>
</linearGradient>
<polygon class="st3" points="535.6,285.6 0,0 960,-0.7 "/>
<g>
	<path class="st4" d="M199.1,311.2l-5.5,54.4h-10.3l17.7-164.5h14.7l18.5,164.5h-10.8l-5.8-54.4H199.1z M216.4,296.7
		c-4.2-38.2-6.9-66.5-7.9-81.3H208c-0.3,12.6-4.3,50-7.4,81.3H216.4z"/>
	<path class="st4" d="M266.1,201.1H285c23.2,0,25.6,22.9,25.6,48v65.3c0,25.4-2.6,51.2-26.6,51.2h-17.9V201.1z M276.4,351.9h6.8
		c13.5,0,16.9-11.3,16.9-34v-70.9c0-19.9-2.4-32-16.8-32h-6.9V351.9z"/>
	<path class="st4" d="M346.2,201.1H365c23.2,0,25.6,22.9,25.6,48v65.3c0,25.4-2.6,51.2-26.6,51.2h-17.9V201.1z M356.5,351.9h6.8
		c13.5,0,16.9-11.3,16.9-34v-70.9c0-19.9-2.4-32-16.8-32h-6.9V351.9z"/>
	<path class="st4" d="M437.8,365.6v-62.1c0-1.7-0.2-3-0.5-4.2l-19.6-98.3h11.3c5.5,30.5,12.2,67,14.2,81.5h0.2
		c1.9-15,9-52.5,14.2-81.5h10.8l-19.8,99c-0.2,1.2-0.3,2.5-0.3,4.7v60.8H437.8z"/>
	<path class="st4" d="M541.5,201.1h36.6v14.5h-26.3v55.9h24.6v14.5h-24.6v79.6h-10.3V201.1z"/>
	<path class="st4" d="M619.3,201.1v128.6c0,13.8,3.2,23.6,11.6,23.6c8.7,0,11.6-8.9,11.6-23.6V201.1H653v128.1
		c0,25.4-7.6,38.7-22.2,38.7c-14.3,0-21.7-12.6-21.7-38.2V201.1H619.3z"/>
	<path class="st4" d="M690.5,365.6V201.1h12.4L722,306c2.4,12.8,3.5,22.7,4.3,29.1h0.3c-0.6-22.4-0.8-45.6-0.8-72.4v-61.6h9.7v164.5
		h-11.9l-21.4-119.5c-1.4-8.4-2.3-14.8-2.7-19.2h-0.2c0.6,19.7,1,47,1,76.8v61.8H690.5z"/>
	<path class="st4" d="M773.7,201.1h10.1v80.5h0.2c4.7-15.3,16.8-55.9,24-80.5h11.1l-20.8,65.5l22.9,99h-11.1l-18.5-82.5l-7.7,23.2
		v59.4h-10.1V201.1z"/>
</g>
</svg>
