<?xml version="1.0" encoding="utf-8"?>
<!-- Generator: Adobe Illustrator 20.1.0, SVG Export Plug-In . SVG Version: 6.00 Build 0)  -->
<svg version="1.1" id="Layer_1" xmlns="http://www.w3.org/2000/svg" xmlns:xlink="http://www.w3.org/1999/xlink" x="0px" y="0px"
	 viewBox="0 0 960 560" style="enable-background:new 0 0 960 560;" xml:space="preserve">
<style type="text/css">
	.st0{fill:#999999;}
	.st1{fill:#666666;}
	.st2{fill:#FFFFFF;}
	.st3{fill:#666666;stroke:#00A99D;stroke-width:3;stroke-miterlimit:10;}
	.st4{fill:none;stroke:#00A99D;stroke-width:9;stroke-miterlimit:10;}
	.st5{fill:#00A99D;stroke:#00A99D;stroke-width:9;stroke-miterlimit:10;}
</style>
<g>
	<rect x="393.4" y="437.4" class="st0" width="120.5" height="83.1"/>
</g>
<g>
	<path class="st1" d="M772.1,442.8H135.3c-6.6,0-12-5.4-12-12V43.3c0-6.6,5.4-12,12-12h636.8c6.6,0,12,5.4,12,12v387.4
		C784.1,437.4,778.7,442.8,772.1,442.8z"/>
</g>
<g>
	<path class="st2" d="M721.5,403H185.9c-6.6,0-12-5.4-12-12V83.1c0-6.6,5.4-12,12-12h535.6c6.6,0,12,5.4,12,12V391
		C733.5,397.6,728.1,403,721.5,403z"/>
</g>
<path class="st1" d="M540,528.7H368.8c-1.7,0-3-1.4-3-3v-2.1c0-1.7,1.4-3,3-3H540c1.7,0,3,1.4,3,3v2.1
	C543,527.3,541.7,528.7,540,528.7z"/>
<circle class="st3" cx="454.5" cy="423.5" r="13.9"/>
<circle class="st4" cx="746.4" cy="204" r="90.2"/>
<path class="st5" d="M656.8,285.1l-75.1,39.4c-5.8,3.1-13.1,0.8-16.2-5l-6.8-13c-3.1-5.8-0.8-13.1,5-16.2l75.1-39.4
	c5.8-3.1,13.1-0.8,16.2,5l6.8,13C664.9,274.7,662.6,282,656.8,285.1z"/>
</svg>
