<?xml version="1.0" encoding="utf-8"?>
<!-- Generator: Adobe Illustrator 20.1.0, SVG Export Plug-In . SVG Version: 6.00 Build 0)  -->
<svg version="1.1" id="Layer_1" xmlns="http://www.w3.org/2000/svg" xmlns:xlink="http://www.w3.org/1999/xlink" x="0px" y="0px"
	 viewBox="0 0 960 560" style="enable-background:new 0 0 960 560;" xml:space="preserve">
<style type="text/css">
	.st0{fill:#FFFFFF;stroke:#666666;stroke-width:9;stroke-miterlimit:10;}
	.st1{fill:#FFFFFF;}
	.st2{fill:#FFFFFF;stroke:#FFFFFF;stroke-width:14;stroke-miterlimit:10;}
	.st3{fill:#FFFFFF;stroke:#666666;stroke-width:4;stroke-miterlimit:10;}
	.st4{fill:#FFFFFF;stroke:#666666;stroke-width:5;stroke-miterlimit:10;}
	.st5{fill:#00A99D;}
	.st6{fill:#00A99D;stroke:#00A99D;stroke-width:13;stroke-miterlimit:10;}
	.st7{fill:#00A99D;stroke:#39B54A;stroke-width:12;stroke-miterlimit:10;}
	.st8{fill:#8CC63F;}
</style>
<g>
	<path class="st0" d="M636.1,200.5H324.8c-6.6,0-12-5.4-12-12v-7.2c0-6.6,5.4-12,12-12h311.3c6.6,0,12,5.4,12,12v7.2
		C648.1,195.1,642.7,200.5,636.1,200.5z"/>
	<line class="st0" x1="336.7" y1="129.7" x2="320.8" y2="169.3"/>
	<line class="st0" x1="622.2" y1="132.2" x2="332.4" y2="132.2"/>
	<line class="st0" x1="640.5" y1="170.4" x2="618.2" y2="130"/>
	<g>
		<line class="st0" x1="330.5" y1="199.3" x2="362.2" y2="540"/>
		<line class="st0" x1="629.7" y1="200.5" x2="597.6" y2="542.6"/>
		<line class="st0" x1="357.6" y1="540" x2="601.7" y2="538.8"/>
	</g>
	<g>
		<path class="st1" d="M335,176.9c3.1-4.2,6.3-8.3,9.4-12.5c0.9,2.3,1.2,4.9,0.8,7.3"/>
		<g>
			<path class="st1" d="M336.3,177.6c3.1-4.2,6.3-8.3,9.4-12.5c-0.9-0.1-1.8-0.2-2.7-0.4c0.8,2.1,1.1,4.2,0.8,6.5
				c-0.3,1.9,2.6,2.7,2.9,0.8c0.4-2.8,0.2-5.4-0.8-8.1c-0.5-1.3-2-1.4-2.7-0.4c-3.1,4.2-6.3,8.3-9.4,12.5
				C332.6,177.6,335.2,179.1,336.3,177.6L336.3,177.6z"/>
		</g>
	</g>
	<line class="st2" x1="324.8" y1="169.3" x2="636.1" y2="169.3"/>
	<line class="st3" x1="328.3" y1="156.4" x2="322.7" y2="172.8"/>
	<line class="st4" x1="639.4" y1="172.5" x2="631" y2="157.3"/>
</g>
<g>
	<g>
		<path class="st5" d="M486,41.8c15.6,7,11.3,22.6,8.1,36c-3.9,16.2-3.1,31.8,11.4,42.5c3.3,2.4,8.3,0.5,10.3-2.7
			c2.3-3.8,0.6-7.9-2.7-10.3c-12.7-9.3-2.9-28.5-1.2-40.7c2.2-15.4-3.3-31-18.3-37.8c-3.7-1.7-8-1-10.3,2.7
			C481.4,34.8,482.3,40.2,486,41.8L486,41.8z"/>
	</g>
</g>
<polyline class="st6" points="608.2,461.4 357.9,461.2 347,343.9 616.6,343.9 "/>
<circle class="st7" cx="481.8" cy="402.6" r="52.8"/>
<g>
	<g>
		<path class="st8" d="M441.3,440.3c13.1-4.9,22.5-15.6,27.8-28.3c3.2-7.8,10.7-30.9-3.3-33.1c-14-2.2-6.6,20.3-4.2,25.9
			c6.5,15.1,22.2,17.9,37.2,15.5c9.6-1.6,18.4-5.4,27.1-9.8c9.7-4.8,20.4-10.3,31.3-6.2c1.8,0.7,2.6-2.2,0.8-2.9
			c-14.6-5.6-28.5,4.5-41.3,10.2c-14.9,6.6-41,12.6-50.8-5c-2.9-5.2-7.1-14.9-5.3-21c1.6-5.5,8-4,9.8,0.9c0.7,1.9,0.6,4.2,0.5,6.2
			c-0.2,3.8-1,7.5-2,11.2c-4.1,14.6-13.7,28-28.2,33.4C438.7,438.1,439.5,441,441.3,440.3L441.3,440.3z"/>
	</g>
</g>
<g>
	<g>
		<path class="st5" d="M439.4,11.1c-7.8,8.2-6.4,21.6-2.7,31.4c2,5.3,5.5,9.9,7.3,15.1c1.9,5.4-2.7,8.5-6.5,11.5
			c-3.2,2.5-2.6,8,0,10.6c3.1,3.2,7.4,2.5,10.6,0c9.6-7.6,14.2-17.4,9.1-29.2c-2.2-5.1-5.5-9.7-7.1-15.1c-1-3.4-2.9-10.6-0.1-13.5
			C456.6,14.8,446,4.1,439.4,11.1L439.4,11.1z"/>
	</g>
</g>
</svg>
